<svg width="134" height="45" viewBox="0 0 134 45" fill="none" xmlns="http://www.w3.org/2000/svg">
<path d="M10.6364 20.7224C12.4792 20.7224 13.9693 19.2319 13.9693 17.3886C13.9693 15.5454 12.4792 14.0549 10.6364 14.0549C8.79356 14.0549 7.30344 15.5454 7.30344 17.3886C7.30344 19.2231 8.79356 20.7224 10.6364 20.7224ZM12.7437 40.4955L10.6364 44.72L8.52904 40.4955C4.02343 39.5253 0.646423 35.5213 0.646423 30.7148C0.646423 28.1571 1.6075 25.82 3.1946 24.0473C1.6075 22.2746 0.646423 19.9375 0.646423 17.3798V4.05371C0.646423 2.21045 2.13653 0.719971 3.97934 0.719971C5.82214 0.719971 7.31227 2.21045 7.31227 4.05371V7.38744H7.98237L11.042 2.80135C12.0471 1.48726 13.6166 0.719971 15.2654 0.719971H17.9282C18.2192 0.719971 18.5102 0.816985 18.7394 0.993373C19.3214 1.44316 19.436 2.28101 18.9863 2.86309L15.2302 8.49868C18.4396 10.1656 20.6351 13.5169 20.6351 17.3886C20.6351 19.9463 19.674 22.2834 18.0869 24.0561C19.674 25.8288 20.6351 28.1659 20.6351 30.7236C20.6351 35.5213 17.2581 39.5253 12.7437 40.4955ZM10.6364 27.3898C8.79356 27.3898 7.30344 28.8803 7.30344 30.7236C7.30344 32.5668 8.79356 34.0573 10.6364 34.0573C12.4792 34.0573 13.9693 32.5668 13.9693 30.7236C13.9693 28.8803 12.4792 27.3898 10.6364 27.3898Z" fill="white"/>
<path fill-rule="evenodd" clip-rule="evenodd" d="M60.8914 10.9304C56.1307 10.9304 52.273 14.789 52.273 19.5509V25.2942C52.273 30.0562 56.1307 33.9147 60.8914 33.9147H67.2131C68.4841 33.9147 69.5098 32.8888 69.5098 31.6174V19.5509C69.5098 14.8002 65.6522 10.9304 60.8914 10.9304ZM63.7568 27.0339C63.7568 27.6696 63.2439 28.1826 62.6084 28.1826H60.8803C59.2971 28.1826 58.0038 26.9001 58.0038 25.3054V19.5621C58.0038 17.9785 59.2859 16.6849 60.8803 16.6849C62.4746 16.6849 63.7568 17.9673 63.7568 19.5621V27.0339Z" fill="white"/>
<path fill-rule="evenodd" clip-rule="evenodd" d="M82.7197 6.91577C77.959 6.91577 74.1013 10.7744 74.1013 15.5363C74.1013 25.0713 74.1013 31.2049 74.1013 33.926C74.1013 35.9333 73.8226 37.3273 72.9529 38.5206C74.4024 37.9853 75.8183 37.305 77.1674 36.4909C78.6725 37.7511 80.6014 38.5206 82.7197 38.5206C87.4805 38.5206 91.3382 34.662 91.3382 29.9001C91.3382 28.3277 90.9145 26.8556 90.1898 25.5843C90.9256 24.3129 91.3382 22.8409 91.3382 21.2684V15.5251C91.3382 10.7744 87.4805 6.91577 82.7197 6.91577ZM82.7197 32.7773C81.1365 32.7773 79.8432 31.4948 79.8432 29.9001C79.8432 28.3165 81.1254 27.0229 82.7197 27.0229C84.3141 27.0229 85.5963 28.3054 85.5963 29.9001C85.5963 31.4948 84.3029 32.7773 82.7197 32.7773ZM85.5963 21.2796C85.5963 22.8632 84.3141 24.1568 82.7197 24.1568C81.1254 24.1568 79.8432 22.8743 79.8432 21.2796V15.5363C79.8432 13.9527 81.1254 12.6591 82.7197 12.6591C84.3141 12.6591 85.5963 13.9415 85.5963 15.5363V21.2796Z" fill="white"/>
<path fill-rule="evenodd" clip-rule="evenodd" d="M124.663 10.9304C119.903 10.9304 116.045 14.789 116.045 19.5509V25.2942C116.045 30.0562 119.903 33.9147 124.663 33.9147C126.246 33.9147 127.54 32.6323 127.54 31.0375C127.54 29.4428 126.258 28.1603 124.663 28.1603C123.08 28.1603 121.787 26.8778 121.787 25.2831C121.787 24.9708 122.043 24.7032 122.367 24.7032H130.416C132 24.7032 133.293 23.4207 133.293 21.826V19.5286C133.282 14.8002 129.424 10.9304 124.663 10.9304ZM126.971 20.1308H122.378C122.065 20.1308 121.798 19.8743 121.798 19.5509C121.798 17.9674 123.08 16.6737 124.674 16.6737C126.258 16.6737 127.551 17.9562 127.551 19.5509C127.54 19.8743 127.283 20.1308 126.971 20.1308Z" fill="white"/>
<path fill-rule="evenodd" clip-rule="evenodd" d="M49.3957 19.5639C49.3957 14.802 45.538 10.9434 40.7773 10.9434C36.0165 10.9434 32.1589 14.802 32.1589 19.5639V25.3072V31.0505C32.1589 32.6341 33.441 33.9277 35.0354 33.9277C36.6297 33.9277 37.9119 32.6452 37.9119 31.0505V28.1844H38.4917L41.1341 32.1322C42.0037 33.2586 43.3528 33.9277 44.7799 33.9277H47.0767C47.3331 33.9277 47.5784 33.8385 47.7791 33.6935C48.2808 33.3032 48.3811 32.5895 47.9909 32.0765L44.7464 27.2142C47.5003 25.7867 49.3957 22.8983 49.3957 19.5639ZM40.7773 22.4299C39.1941 22.4299 37.9008 21.1475 37.9008 19.5527C37.9008 17.958 39.1829 16.6755 40.7773 16.6755C42.3605 16.6755 43.6538 17.958 43.6538 19.5527C43.6538 21.1475 42.3605 22.4299 40.7773 22.4299Z" fill="white"/>
<path fill-rule="evenodd" clip-rule="evenodd" d="M104.562 10.9304C99.8013 10.9304 95.9436 14.789 95.9436 19.5509V25.2942C95.9436 30.0562 99.8013 33.9147 104.562 33.9147C106.145 33.9147 107.439 32.6323 107.439 31.0375C107.439 29.4428 106.156 28.1603 104.562 28.1603C102.979 28.1603 101.686 26.8778 101.686 25.2831C101.686 24.9708 101.942 24.7032 102.265 24.7032H110.315C111.898 24.7032 113.192 23.4207 113.192 21.826V19.5286C113.18 14.8002 109.312 10.9304 104.562 10.9304ZM106.859 20.1308H102.254C101.942 20.1308 101.674 19.8743 101.674 19.5509C101.674 17.9674 102.957 16.6737 104.551 16.6737C106.134 16.6737 107.427 17.9562 107.427 19.5509C107.427 19.8743 107.171 20.1308 106.859 20.1308Z" fill="white"/>
</svg>
